<svg xmlns="http://www.w3.org/2000/svg" viewBox="0 0 703.24 593.89"><g id="Layer_2" data-name="Layer 2"><g id="Layer_1-2" data-name="Layer 1"><path d="M.83,39.56c12.54,33.18,24.09,66.72,35,100.48s21,67.76,30.9,101.83,19.41,68.3,29,102.49,19.15,68.38,29.12,102.46c9.91,33.91,20.2,67.71,31.21,101.27q2.09,6.39,4.22,12.75c2.11,6.33,7,10.92,13.72,11.82,6.12.83,13.53-2,16.44-7.87,14.77-29.82,26.17-61.2,35.44-93.12,9-30.83,16.08-62.16,23.17-93.47l23.1-102.09q11.49-50.81,23-101.62,11.55-51.06,23.11-102.13L321,59.66c1.9-8.4-2.56-18.26-11.52-20.3-8.39-1.91-18.26,2.52-20.3,11.52Q267.38,147.44,245.53,244q-10.8,47.76-21.61,95.52c-6.9,30.49-13.55,61.05-21.25,91.35-8.36,32.89-18.12,65.49-31.28,96.8l1.66-3.94q-5.24,12.38-11.19,24.43L192,552.07c-11.24-33.66-21.72-67.57-31.78-101.61S140.53,382.24,131,348.05s-19.08-68.39-28.87-102.52S82.23,177.41,71.53,143.58C60.88,109.93,49.59,76.48,37.35,43.37q-2.33-6.3-4.7-12.58c-1.56-4.12-3.66-7.57-7.58-9.86-3.54-2.07-8.75-2.95-12.72-1.66C4.49,21.81-2.44,30.92.83,39.56Z"/><path d="M337.69,113a259.43,259.43,0,0,0-6.18,76.06,272.4,272.4,0,0,0,5.68,39.59A61.51,61.51,0,0,0,339,235.2a53.67,53.67,0,0,0,4.15,9.56c4,7,10.42,12.63,18.26,14.76a32,32,0,0,0,16.14-.14,75.55,75.55,0,0,0,11.2-4.32,132.86,132.86,0,0,0,12.53-6.24,159.82,159.82,0,0,0,25.56-18.28,147.07,147.07,0,0,0,19.08-20,173.28,173.28,0,0,0,17.59-26.36,172.84,172.84,0,0,0,12.21-29.29,162.16,162.16,0,0,0,6.12-31,132.26,132.26,0,0,0,.76-13.78c0-5.87-.14-12-1.45-17.74a32.46,32.46,0,0,0-2.62-6.75,9.94,9.94,0,0,0-.78-1.3,25.85,25.85,0,0,0-3.6-4.46c-4.5-4-10.52-7-16.74-6.51a25.79,25.79,0,0,0-7.25,1.33,31.65,31.65,0,0,0-6.74,3.23,39.5,39.5,0,0,0-8.56,7.59A124.8,124.8,0,0,0,424,101.14a149.07,149.07,0,0,0-8.19,17.22,120.46,120.46,0,0,0-7.94,29.31c-1.61,11.51-2.28,23-.89,34.53,1.56,12.93,4.22,25.64,10.14,37.36a55.57,55.57,0,0,0,6.49,9.57,45.61,45.61,0,0,0,8.62,7.84c5.34,4.05,11.7,6.53,17.89,9a192.12,192.12,0,0,0,29.38,9,145,145,0,0,0,34.41,3.69,116.24,116.24,0,0,0,18.88-2.13,73.11,73.11,0,0,0,14-4.13,86.83,86.83,0,0,0,16.26-8.31c3.58-2.45,6.4-5.57,7.58-9.86a12.49,12.49,0,0,0,.29-6.58,12.27,12.27,0,0,0-2-6.14c-2.27-3.52-5.65-6.62-9.86-7.58s-9.06-.83-12.71,1.67a68,68,0,0,1-11.6,6.35l3.94-1.67a76.22,76.22,0,0,1-19.27,5.18l4.39-.59a107.44,107.44,0,0,1-28.38-.27l4.38.59a175,175,0,0,1-44.11-12.36l3.94,1.66a49.89,49.89,0,0,1-10.78-6l3.34,2.58A32,32,0,0,1,447,205.8l2.58,3.34a42.54,42.54,0,0,1-5.29-9.24l1.66,3.95a97.15,97.15,0,0,1-6.32-24.65l.59,4.39a118.91,118.91,0,0,1,.07-31.14l-.59,4.39A120.7,120.7,0,0,1,448,126.4l-1.66,3.94a114.79,114.79,0,0,1,14.18-24.55l-2.58,3.34a27.45,27.45,0,0,1,4.66-4.73L459.23,107a17.65,17.65,0,0,1,3.59-2.14l-3.94,1.66a11.38,11.38,0,0,1,2.36-.68l-4.38.59a8.44,8.44,0,0,1,2,0l-4.39-.59a8.15,8.15,0,0,1,1.63.43l-3.94-1.66a8.39,8.39,0,0,1,1.54.88l-3.34-2.58a8.51,8.51,0,0,1,1.21,1.19L449,100.71a9.86,9.86,0,0,1,1.2,2l-1.67-3.94a17.16,17.16,0,0,1,1.07,4.11L449,98.52a93.58,93.58,0,0,1,.5,14.5,137.79,137.79,0,0,1-1.15,14.48l.59-4.39a144.67,144.67,0,0,1-10.1,36.7l1.66-3.94a151.66,151.66,0,0,1-19.43,33.27l2.58-3.34A147.33,147.33,0,0,1,397.55,212l3.34-2.58a135.24,135.24,0,0,1-30,17.61l3.94-1.66a34.83,34.83,0,0,1-8.08,2.55l4.39-.59a15.38,15.38,0,0,1-4,0l4.39.59a13,13,0,0,1-2.74-.76l3.94,1.67a13.56,13.56,0,0,1-2.71-1.57l3.34,2.58a17,17,0,0,1-2.68-2.68l2.58,3.33a25.51,25.51,0,0,1-3.14-5.49l1.66,3.94a68.38,68.38,0,0,1-3.53-12.82q-1.67-8.13-2.76-16.38l.59,4.39a244.45,244.45,0,0,1-1.46-50.44q.54-7.23,1.51-14.4l-.59,4.38q1.5-11.06,4-21.94a17.37,17.37,0,0,0-1.66-12.71,16.8,16.8,0,0,0-9.86-7.58c-4.22-1-9-.76-12.71,1.66-3.53,2.28-6.62,5.65-7.59,9.86Z"/><path d="M581.1,62.82a316.42,316.42,0,0,0-9.5,52,289.6,289.6,0,0,0-.82,48.92,182.23,182.23,0,0,0,3.59,27.44,77.34,77.34,0,0,0,3.42,11.26,86.15,86.15,0,0,0,3.68,8.42,40,40,0,0,0,4,5.94,29.83,29.83,0,0,0,4.65,5.13,35.38,35.38,0,0,0,7.52,5.11,47.62,47.62,0,0,0,8.62,3.23,75.79,75.79,0,0,0,9.1,1.41c8.11.95,16.35.14,24.35-1.33a88.25,88.25,0,0,0,22.66-7.84A85.88,85.88,0,0,0,682,208.91q1.9-1.74,3.67-3.6a17.21,17.21,0,0,0,4.83-11.67A16.8,16.8,0,0,0,685.69,182c-3.15-2.89-7.27-5-11.67-4.84A16.92,16.92,0,0,0,662.35,182a70.43,70.43,0,0,1-7.91,7.14l3.34-2.58a73.16,73.16,0,0,1-15.68,9.13l3.95-1.67a73.2,73.2,0,0,1-18.64,5.09l4.39-.59a66.86,66.86,0,0,1-17.48.06l4.38.59a32.38,32.38,0,0,1-8-2.09l3.94,1.66a21.06,21.06,0,0,1-4.24-2.45l3.34,2.58a21.42,21.42,0,0,1-3.67-3.7l2.58,3.34a35.11,35.11,0,0,1-4.18-7.41l1.67,3.94a88,88,0,0,1-5.66-22.17l.59,4.38A265.62,265.62,0,0,1,604,121.49q.63-8,1.69-15.91L605.1,110a293.17,293.17,0,0,1,7.82-38.37,17.07,17.07,0,0,0-1.66-12.71,16.8,16.8,0,0,0-9.86-7.58c-4.22-1-9-.76-12.71,1.66a17.23,17.23,0,0,0-7.59,9.86Z"/><path d="M545.06,115.91a675.32,675.32,0,0,0,77.22-7.59q10.2-1.57,20.34-3.49a12.45,12.45,0,0,0,5.62-3,12.51,12.51,0,0,0,4.24-4.63c2.07-3.54,2.95-8.75,1.67-12.72s-3.77-7.84-7.58-9.86l-4-1.66a16.52,16.52,0,0,0-8.77,0q-16.43,3.09-33,5.31l4.38-.59q-30,4-60.19,5.18a17.31,17.31,0,0,0-11.67,4.84,16.77,16.77,0,0,0-4.83,11.66c.19,4.27,1.59,8.7,4.83,11.67s7.27,5,11.67,4.83Z"/><path d="M446.25,65.93a527.08,527.08,0,0,0,52.3-26.57c2.32-1.35,4.63-2.71,6.93-4.1a68.3,68.3,0,0,1,7-4.16l-3.94,1.66a7.53,7.53,0,0,1,1.15-.32l-4.38.59a5.68,5.68,0,0,1,1,0L502,32.44a6.08,6.08,0,0,1,1.26.37l-3.94-1.66a7.2,7.2,0,0,1,1.16.71l-3.34-2.58a12.82,12.82,0,0,1,2,2.08L496.55,28c2.53,3.34,4.69,7,7,10.51l7.29,11.08a17.44,17.44,0,0,0,9.86,7.59,12.49,12.49,0,0,0,6.58.29,12.27,12.27,0,0,0,6.14-2c3.52-2.27,6.62-5.65,7.58-9.86s.78-9-1.66-12.71q-6.36-9.64-12.7-19.29a47.46,47.46,0,0,0-5.12-6.76A23,23,0,0,0,511.39.76,19.66,19.66,0,0,0,505.68,0c-3.87,0-6.41,1-9.83,2.6a51.54,51.54,0,0,0-4.59,2.7q-19,11.56-38.95,21.5-11.22,5.58-22.71,10.64A12.31,12.31,0,0,0,425,41.69a12.38,12.38,0,0,0-3,5.61,12.49,12.49,0,0,0-.29,6.58,12.23,12.23,0,0,0,2,6.13c2.27,3.53,5.65,6.63,9.86,7.59l4.38.59a16.36,16.36,0,0,0,8.33-2.26Z"/><path d="M457.56,300.6a17.05,17.05,0,0,0,11.67-4.83,16.79,16.79,0,0,0,4.83-11.67c-.19-4.26-1.59-8.69-4.83-11.66a16.49,16.49,0,0,0-23.34,0,16.77,16.77,0,0,0-4.83,11.66c.19,4.27,1.59,8.7,4.83,11.67a17.17,17.17,0,0,0,11.67,4.83Z"/><path d="M303.8,345.24q-2.88,29.37-6.58,58.64-1.05,8.3-2.16,16.58l.59-4.38q-4,29.73-8.84,59.34t-10.47,58.83q-3.18,16.53-6.64,33A17.53,17.53,0,0,0,271.37,580c2,3.42,5.92,6.69,9.86,7.58,4.22,1,9,.76,12.71-1.66,3.49-2.25,6.71-5.67,7.58-9.86q9.19-43.93,16.51-88.22,7.62-46.09,13.25-92.49,3.06-25,5.52-50.1A18.36,18.36,0,0,0,332,333.57a16.75,16.75,0,0,0-11.67-4.83c-4.27.19-8.69,1.59-11.67,4.83l-2.58,3.34a16.45,16.45,0,0,0-2.25,8.33Z"/><path d="M349.05,355.39c10.33-3.92,20.78-7.82,31.78-9.35l-4.39.59a58.88,58.88,0,0,1,15.18-.18l-4.39-.59a41.73,41.73,0,0,1,10.68,2.95L394,347.14a42.05,42.05,0,0,1,8.95,5.24l-3.34-2.58a36.08,36.08,0,0,1,6.2,6.15l-2.58-3.34a30.46,30.46,0,0,1,3.79,6.48l-1.67-3.95a26.27,26.27,0,0,1,1.7,6.26l-.59-4.38a26.67,26.67,0,0,1,0,6.74l.59-4.39a31.25,31.25,0,0,1-2.06,7.47l1.67-3.95a44,44,0,0,1-5.66,9.55l2.58-3.34c-4.72,6.09-10.59,11.16-16.66,15.86l3.33-2.58c-8.61,6.64-17.82,12.43-27,18.28a316,316,0,0,0-29.31,20.64,118.64,118.64,0,0,0-13.22,12.43c-4,4.43-5.87,10.15-4.24,16,1.47,5.34,6,10.29,11.52,11.53a678.42,678.42,0,0,1,73.91,21c6.51,2.25,13.07,4.46,19.42,7.13l-3.94-1.66a41.57,41.57,0,0,1,8.95,5L423,490.17a25.56,25.56,0,0,1,4.28,4.23l-2.58-3.34a28.67,28.67,0,0,1,3.57,6.1l-1.67-3.94a37.13,37.13,0,0,1,2.48,9.21l-.59-4.39a48.45,48.45,0,0,1,0,12.56l.59-4.38A54.34,54.34,0,0,1,425.27,520l1.66-3.94a65.11,65.11,0,0,1-8.27,14l2.58-3.34a78,78,0,0,1-13.9,13.82l3.34-2.58a82.88,82.88,0,0,1-18.31,10.68l3.94-1.66a125.23,125.23,0,0,1-31.58,8.19l4.39-.59c-15.74,2.08-31.65,2-47.49,1.88A16.94,16.94,0,0,0,310,561.27a16.75,16.75,0,0,0-4.83,11.67c.19,4.26,1.59,8.69,4.83,11.66a17.25,17.25,0,0,0,11.67,4.84c22.06.18,44.39.06,66-5a114,114,0,0,0,30.26-11.65,110.66,110.66,0,0,0,13.67-9.58,78.47,78.47,0,0,0,9.24-8.62,95.18,95.18,0,0,0,10.13-13.25,82.15,82.15,0,0,0,7-14.56,61.85,61.85,0,0,0,3.29-14,55.61,55.61,0,0,0,.3-14.75,61.52,61.52,0,0,0-2-10.62,51.68,51.68,0,0,0-4.15-9.75,42.84,42.84,0,0,0-14.9-15.16c-5.15-3.2-11-5.27-16.67-7.36q-7.77-2.88-15.62-5.55-31.25-10.68-63.45-18.28-4-.94-8-1.83l7.29,27.57a123.38,123.38,0,0,1,16.06-14.67L356.77,445c10.75-8.29,22.42-15.24,33.77-22.65,6.76-4.41,13.29-9.08,19.67-14a97.9,97.9,0,0,0,14.88-13.67c5.91-6.95,11.13-14.8,13.25-23.82a40.62,40.62,0,0,0,1.14-13.45,51.7,51.7,0,0,0-1.33-8.09,52.55,52.55,0,0,0-3.08-7.77A44.9,44.9,0,0,0,428,331.28a54.22,54.22,0,0,0-9.57-8.25,42,42,0,0,0-7.82-4.38,59.15,59.15,0,0,0-12.16-4.21c-11-2.17-22-1.46-32.88.94-8.67,1.91-17,5-25.3,8.19a12.36,12.36,0,0,0-5.61,2.95,12.54,12.54,0,0,0-4.25,4.63c-2.07,3.54-2.95,8.75-1.66,12.72s3.76,7.84,7.58,9.86,8.62,3.21,12.71,1.66Z"/><path d="M478.12,438.14q-2.55,35.21-2.29,70.52c.09,12.1.25,24.15,2.16,36.14a70.64,70.64,0,0,0,5.72,18.12,38.49,38.49,0,0,0,3.54,6.25,47.89,47.89,0,0,0,6.79,8.11,36.26,36.26,0,0,0,8.71,6.13,41.35,41.35,0,0,0,6.62,2.6,37.52,37.52,0,0,0,8,1.11,22.12,22.12,0,0,0,3.55-.2,47,47,0,0,0,8.1-1.42,55.79,55.79,0,0,0,9.91-4.14,39.63,39.63,0,0,0,5.3-3.38,69.94,69.94,0,0,0,7.77-6.49,71,71,0,0,0,10-13,99.6,99.6,0,0,0,7.19-15.2,102.75,102.75,0,0,0,3.93-12.37,219.12,219.12,0,0,0,5.44-36.57c1.72-22.79.6-45.66.92-68.48q.06-4.22.19-8.44a16.51,16.51,0,0,0-16.5-16.5c-4.27.2-8.69,1.6-11.67,4.84a17.59,17.59,0,0,0-4.83,11.66c-.75,23.56.57,47.15-.71,70.69-.35,6.63-.93,13.24-1.8,19.82l.59-4.38c-1.52,11.25-3.79,22.5-8.22,33l1.66-3.94A66.83,66.83,0,0,1,530,547l2.58-3.34a46.8,46.8,0,0,1-8.08,8.2l3.34-2.58a38.62,38.62,0,0,1-8.46,5l3.94-1.66a28.78,28.78,0,0,1-6.79,1.94l4.38-.59a20.16,20.16,0,0,1-5.32,0l4.39.59a18.06,18.06,0,0,1-4.14-1.15l4,1.66a21.13,21.13,0,0,1-4.55-2.71l3.34,2.58a28.11,28.11,0,0,1-4.58-4.67l2.58,3.34a39.44,39.44,0,0,1-4.85-8.49l1.67,3.94a60.51,60.51,0,0,1-3.87-15.14l.59,4.38A164.3,164.3,0,0,1,509,520.83q-.21-10.07-.2-20.12,0-19.89.95-39.75.53-11.41,1.36-22.82a18.36,18.36,0,0,0-4.83-11.66,16.76,16.76,0,0,0-11.67-4.84c-4.27.19-8.69,1.6-11.67,4.84l-2.58,3.34a16.44,16.44,0,0,0-2.25,8.32Z"/><path d="M605.5,397.94c2.07,17.95.54,36-1.63,53.88-2.07,17.05-4.73,34.07-5.29,51.27a175.75,175.75,0,0,0,.67,23.17,141.78,141.78,0,0,0,4.84,26.58,128.57,128.57,0,0,0,5.37,14.2,83.8,83.8,0,0,0,5.17,10.12,60.13,60.13,0,0,0,5.54,7.73,14.67,14.67,0,0,0,2,2,26.32,26.32,0,0,0,18.31,7,33,33,0,0,0,9.4-1.51c8.63-2.79,16.68-7.9,24-13.23a147.51,147.51,0,0,0,20.6-17.82q2.05-2.18,4-4.44a18.3,18.3,0,0,0,4.84-11.67,16.78,16.78,0,0,0-4.84-11.67c-3.14-2.88-7.27-5-11.66-4.83-4.18.19-8.84,1.54-11.67,4.83a127.78,127.78,0,0,1-18.53,17.64l3.34-2.58c-3.21,2.47-6.53,4.81-10,7a76.8,76.8,0,0,1-10.59,5.83l3.94-1.67a23.3,23.3,0,0,1-5.6,1.61l4.39-.59a13.76,13.76,0,0,1-3.57,0l4.39.59a11.72,11.72,0,0,1-2.27-.62l3.94,1.66a11.06,11.06,0,0,1-2.09-1.19l3.34,2.58a14.83,14.83,0,0,1-2.53-2.54l2.58,3.34a67.34,67.34,0,0,1-8.12-14.76l1.66,3.94a107.84,107.84,0,0,1-7.15-27.11l.59,4.38c-2.11-15.75-1.48-31.73.17-47.5,1.91-18.23,5-36.34,6.1-54.65a175.69,175.69,0,0,0-.58-30.94,18.36,18.36,0,0,0-4.83-11.67A16.73,16.73,0,0,0,622,381.44c-4.26.19-8.69,1.59-11.66,4.83-2.77,3-5.32,7.42-4.84,11.67Z"/><path d="M617.28,370.05A17,17,0,0,0,629,365.22c2.86-2.87,5-7.56,4.83-11.67-.19-4.27-1.59-8.7-4.83-11.67a16.51,16.51,0,0,0-23.34,0,16.79,16.79,0,0,0-4.83,11.67c.19,4.27,1.59,8.69,4.83,11.67a17.17,17.17,0,0,0,11.67,4.83Z"/><path d="M510.34,385.31l52.83,5a18.36,18.36,0,0,0,11.66-4.83,16.8,16.8,0,0,0,4.84-11.67c-.2-4.27-1.6-8.69-4.84-11.67l-3.34-2.58a16.44,16.44,0,0,0-8.32-2.25l-52.83-5a18.36,18.36,0,0,0-11.67,4.83,16.79,16.79,0,0,0-4.83,11.67c.19,4.27,1.59,8.69,4.83,11.67l3.34,2.58a16.45,16.45,0,0,0,8.33,2.25Z"/></g></g></svg>